<mxfile host="Electron" modified="2024-04-07T17:34:56.973Z" agent="Mozilla/5.0 (Windows NT 10.0; Win64; x64) AppleWebKit/537.36 (KHTML, like Gecko) draw.io/24.0.4 Chrome/120.0.6099.109 Electron/28.1.0 Safari/537.36" etag="FPE4A1oo7-YC2Zm7cGMY" version="24.0.4" type="device">
  <diagram name="Página-1" id="Tu1zm2fwWSG6dCSFGeOW">
    <mxGraphModel dx="800" dy="772" grid="1" gridSize="10" guides="1" tooltips="1" connect="1" arrows="1" fold="1" page="1" pageScale="1" pageWidth="827" pageHeight="1169" math="0" shadow="0">
      <root>
        <mxCell id="0" />
        <mxCell id="1" parent="0" />
        <mxCell id="X54crgLiA91lmuittRzc-1" value="" style="shape=umlActor;verticalLabelPosition=bottom;verticalAlign=top;html=1;outlineConnect=0;" vertex="1" parent="1">
          <mxGeometry x="50" y="70" width="30" height="50" as="geometry" />
        </mxCell>
        <mxCell id="X54crgLiA91lmuittRzc-6" value="" style="endArrow=none;dashed=1;html=1;rounded=0;" edge="1" parent="1">
          <mxGeometry width="50" height="50" relative="1" as="geometry">
            <mxPoint x="60" y="490" as="sourcePoint" />
            <mxPoint x="60" y="120" as="targetPoint" />
          </mxGeometry>
        </mxCell>
        <mxCell id="X54crgLiA91lmuittRzc-7" value="" style="endArrow=classic;html=1;rounded=0;" edge="1" parent="1">
          <mxGeometry width="50" height="50" relative="1" as="geometry">
            <mxPoint x="60" y="162.6" as="sourcePoint" />
            <mxPoint x="350" y="163" as="targetPoint" />
          </mxGeometry>
        </mxCell>
        <mxCell id="X54crgLiA91lmuittRzc-8" value="&lt;font face=&quot;Helvetica&quot; style=&quot;font-size: 16px;&quot;&gt;Sistema&lt;/font&gt;" style="rounded=0;whiteSpace=wrap;html=1;" vertex="1" parent="1">
          <mxGeometry x="294" y="80" width="120" height="40" as="geometry" />
        </mxCell>
        <mxCell id="X54crgLiA91lmuittRzc-9" value="" style="endArrow=none;dashed=1;html=1;rounded=0;" edge="1" parent="1">
          <mxGeometry width="50" height="50" relative="1" as="geometry">
            <mxPoint x="350" y="490" as="sourcePoint" />
            <mxPoint x="350" y="120" as="targetPoint" />
          </mxGeometry>
        </mxCell>
        <mxCell id="X54crgLiA91lmuittRzc-12" value="&lt;span style=&quot;background-color: initial;&quot;&gt;&lt;font style=&quot;font-size: 11px;&quot; face=&quot;Helvetica&quot;&gt;1.Pede para ver a lista de produtos&lt;/font&gt;&lt;/span&gt;" style="text;html=1;align=left;verticalAlign=middle;resizable=0;points=[];autosize=1;strokeColor=none;fillColor=none;" vertex="1" parent="1">
          <mxGeometry x="70" y="130" width="190" height="30" as="geometry" />
        </mxCell>
        <mxCell id="X54crgLiA91lmuittRzc-19" value="Funcionário" style="text;html=1;align=center;verticalAlign=middle;resizable=0;points=[];autosize=1;strokeColor=none;fillColor=none;" vertex="1" parent="1">
          <mxGeometry x="20" y="50" width="90" height="30" as="geometry" />
        </mxCell>
        <mxCell id="X54crgLiA91lmuittRzc-43" value="2.Apresenta a lista de produtos" style="text;html=1;align=left;verticalAlign=middle;resizable=0;points=[];autosize=1;strokeColor=none;fillColor=none;fontFamily=Helvetica;fontSize=11;fontColor=default;labelBackgroundColor=default;" vertex="1" parent="1">
          <mxGeometry x="71" y="170" width="180" height="30" as="geometry" />
        </mxCell>
        <mxCell id="X54crgLiA91lmuittRzc-46" value="4.Confirma a eliminação do produto" style="text;html=1;align=left;verticalAlign=middle;resizable=0;points=[];autosize=1;strokeColor=none;fillColor=none;fontFamily=Helvetica;fontSize=11;fontColor=default;labelBackgroundColor=default;" vertex="1" parent="1">
          <mxGeometry x="75" y="215" width="200" height="30" as="geometry" />
        </mxCell>
        <mxCell id="X54crgLiA91lmuittRzc-48" value="" style="endArrow=classic;html=1;rounded=0;exitX=1.032;exitY=0.478;exitDx=0;exitDy=0;exitPerimeter=0;edgeStyle=orthogonalEdgeStyle;" edge="1" parent="1">
          <mxGeometry width="50" height="50" relative="1" as="geometry">
            <mxPoint x="350" y="200" as="sourcePoint" />
            <mxPoint x="350" y="228.00000000000003" as="targetPoint" />
            <Array as="points">
              <mxPoint x="389" y="200" />
              <mxPoint x="389" y="228.00000000000003" />
            </Array>
          </mxGeometry>
        </mxCell>
        <mxCell id="X54crgLiA91lmuittRzc-49" value="&lt;div style=&quot;&quot;&gt;&lt;span style=&quot;font-size: 10px;&quot;&gt;3.&lt;/span&gt;&lt;span style=&quot;font-size: 11px;&quot;&gt;Valida o produto a ser eliminado&lt;/span&gt;&lt;/div&gt;" style="text;html=1;align=left;verticalAlign=middle;resizable=0;points=[];autosize=1;strokeColor=none;fillColor=none;" vertex="1" parent="1">
          <mxGeometry x="390" y="185" width="190" height="30" as="geometry" />
        </mxCell>
        <mxCell id="X54crgLiA91lmuittRzc-51" value="" style="endArrow=classic;html=1;rounded=0;strokeColor=default;align=center;verticalAlign=middle;fontFamily=Helvetica;fontSize=11;fontColor=default;labelBackgroundColor=default;" edge="1" parent="1">
          <mxGeometry width="50" height="50" relative="1" as="geometry">
            <mxPoint x="60" y="320" as="sourcePoint" />
            <mxPoint x="350" y="320" as="targetPoint" />
          </mxGeometry>
        </mxCell>
        <mxCell id="X54crgLiA91lmuittRzc-53" value="&lt;font face=&quot;Helvetica&quot; style=&quot;font-size: 11px;&quot;&gt;5.Sistema emite uma notificação a confirmar&amp;nbsp;&lt;/font&gt;&lt;div&gt;&lt;font face=&quot;Helvetica&quot; style=&quot;font-size: 11px;&quot;&gt;a eliminação do produto&lt;/font&gt;&lt;/div&gt;" style="text;html=1;align=left;verticalAlign=middle;resizable=0;points=[];autosize=1;strokeColor=none;fillColor=none;fontFamily=Helvetica;fontSize=11;fontColor=default;labelBackgroundColor=default;" vertex="1" parent="1">
          <mxGeometry x="75" y="280" width="240" height="40" as="geometry" />
        </mxCell>
        <mxCell id="X54crgLiA91lmuittRzc-55" value="" style="html=1;verticalAlign=bottom;endArrow=open;dashed=1;endSize=8;curved=0;rounded=0;strokeColor=default;align=center;fontFamily=Helvetica;fontSize=11;fontColor=default;labelBackgroundColor=default;" edge="1" parent="1">
          <mxGeometry relative="1" as="geometry">
            <mxPoint x="350" y="199.32999999999998" as="sourcePoint" />
            <mxPoint x="60" y="199.32999999999998" as="targetPoint" />
          </mxGeometry>
        </mxCell>
        <mxCell id="X54crgLiA91lmuittRzc-57" value="" style="endArrow=classic;html=1;rounded=0;strokeColor=default;align=center;verticalAlign=middle;fontFamily=Helvetica;fontSize=11;fontColor=default;labelBackgroundColor=default;exitX=-0.031;exitY=0.965;exitDx=0;exitDy=0;exitPerimeter=0;" edge="1" parent="1">
          <mxGeometry width="50" height="50" relative="1" as="geometry">
            <mxPoint x="59.99999999999996" y="246.00000000000006" as="sourcePoint" />
            <mxPoint x="350" y="245" as="targetPoint" />
          </mxGeometry>
        </mxCell>
        <mxCell id="X54crgLiA91lmuittRzc-58" value="&lt;font face=&quot;Helvetica&quot;&gt;6.Produto selecionado sai da lista de produtos.&lt;/font&gt;" style="text;html=1;align=left;verticalAlign=middle;resizable=0;points=[];autosize=1;strokeColor=none;fillColor=none;fontFamily=Helvetica;fontSize=11;fontColor=default;labelBackgroundColor=default;" vertex="1" parent="1">
          <mxGeometry x="70" y="325" width="250" height="30" as="geometry" />
        </mxCell>
        <mxCell id="X54crgLiA91lmuittRzc-78" value="" style="endArrow=classic;html=1;rounded=0;strokeColor=default;align=center;verticalAlign=middle;fontFamily=Helvetica;fontSize=11;fontColor=default;labelBackgroundColor=default;" edge="1" parent="1">
          <mxGeometry width="50" height="50" relative="1" as="geometry">
            <mxPoint x="60" y="360" as="sourcePoint" />
            <mxPoint x="350" y="360" as="targetPoint" />
          </mxGeometry>
        </mxCell>
        <mxCell id="X54crgLiA91lmuittRzc-81" value="" style="endArrow=none;html=1;rounded=0;strokeColor=default;align=center;verticalAlign=middle;fontFamily=Helvetica;fontSize=11;fontColor=default;labelBackgroundColor=default;" edge="1" parent="1">
          <mxGeometry width="50" height="50" relative="1" as="geometry">
            <mxPoint x="10" y="370.1" as="sourcePoint" />
            <mxPoint x="390" y="370.1" as="targetPoint" />
          </mxGeometry>
        </mxCell>
        <mxCell id="X54crgLiA91lmuittRzc-82" value="" style="endArrow=none;html=1;rounded=0;strokeColor=default;align=center;verticalAlign=middle;fontFamily=Helvetica;fontSize=11;fontColor=default;labelBackgroundColor=default;edgeStyle=orthogonalEdgeStyle;" edge="1" parent="1">
          <mxGeometry width="50" height="50" relative="1" as="geometry">
            <mxPoint x="380" y="371.05000000000007" as="sourcePoint" />
            <mxPoint x="10" y="370.2900000000001" as="targetPoint" />
            <Array as="points">
              <mxPoint x="390" y="370.05000000000007" />
              <mxPoint x="390" y="492.05000000000007" />
              <mxPoint x="10" y="492.05000000000007" />
            </Array>
          </mxGeometry>
        </mxCell>
        <mxCell id="X54crgLiA91lmuittRzc-83" value="" style="endArrow=none;html=1;rounded=0;strokeColor=default;align=center;verticalAlign=middle;fontFamily=Helvetica;fontSize=11;fontColor=default;labelBackgroundColor=default;" edge="1" parent="1">
          <mxGeometry width="50" height="50" relative="1" as="geometry">
            <mxPoint x="10" y="410.1" as="sourcePoint" />
            <mxPoint x="40" y="410.1" as="targetPoint" />
          </mxGeometry>
        </mxCell>
        <mxCell id="X54crgLiA91lmuittRzc-84" value="" style="endArrow=none;html=1;rounded=0;strokeColor=default;align=center;verticalAlign=middle;fontFamily=Helvetica;fontSize=11;fontColor=default;labelBackgroundColor=default;" edge="1" parent="1">
          <mxGeometry width="50" height="50" relative="1" as="geometry">
            <mxPoint x="40" y="410.1" as="sourcePoint" />
            <mxPoint x="60" y="390.1" as="targetPoint" />
          </mxGeometry>
        </mxCell>
        <mxCell id="X54crgLiA91lmuittRzc-85" value="" style="endArrow=none;html=1;rounded=0;strokeColor=default;align=center;verticalAlign=middle;fontFamily=Helvetica;fontSize=11;fontColor=default;labelBackgroundColor=default;" edge="1" parent="1">
          <mxGeometry width="50" height="50" relative="1" as="geometry">
            <mxPoint x="59.64999999999999" y="390.1" as="sourcePoint" />
            <mxPoint x="59.64999999999999" y="370.1" as="targetPoint" />
          </mxGeometry>
        </mxCell>
        <mxCell id="X54crgLiA91lmuittRzc-86" value="ALT" style="text;html=1;align=center;verticalAlign=middle;resizable=0;points=[];autosize=1;strokeColor=none;fillColor=none;fontFamily=Helvetica;fontSize=11;fontColor=default;labelBackgroundColor=default;" vertex="1" parent="1">
          <mxGeometry x="20" y="370.1" width="40" height="30" as="geometry" />
        </mxCell>
        <mxCell id="X54crgLiA91lmuittRzc-97" value="" style="endArrow=none;html=1;rounded=0;strokeColor=default;align=center;verticalAlign=middle;fontFamily=Helvetica;fontSize=11;fontColor=default;labelBackgroundColor=default;" edge="1" parent="1">
          <mxGeometry width="50" height="50" relative="1" as="geometry">
            <mxPoint x="10" y="440" as="sourcePoint" />
            <mxPoint x="390" y="440" as="targetPoint" />
          </mxGeometry>
        </mxCell>
        <mxCell id="X54crgLiA91lmuittRzc-99" value="" style="html=1;verticalAlign=bottom;endArrow=open;dashed=1;endSize=8;curved=0;rounded=0;strokeColor=default;align=center;fontFamily=Helvetica;fontSize=11;fontColor=default;labelBackgroundColor=default;" edge="1" parent="1">
          <mxGeometry relative="1" as="geometry">
            <mxPoint x="350" y="420" as="sourcePoint" />
            <mxPoint x="60" y="420" as="targetPoint" />
          </mxGeometry>
        </mxCell>
        <mxCell id="X54crgLiA91lmuittRzc-100" value="[Produto Eliminado: Verdadeiro]" style="text;html=1;align=center;verticalAlign=middle;resizable=0;points=[];autosize=1;strokeColor=none;fillColor=none;fontFamily=Helvetica;fontSize=11;fontColor=default;labelBackgroundColor=default;" vertex="1" parent="1">
          <mxGeometry x="95" y="370.1" width="180" height="30" as="geometry" />
        </mxCell>
        <mxCell id="X54crgLiA91lmuittRzc-101" value="Retorna Sucesso" style="text;html=1;align=center;verticalAlign=middle;resizable=0;points=[];autosize=1;strokeColor=none;fillColor=none;fontFamily=Helvetica;fontSize=11;fontColor=default;labelBackgroundColor=default;" vertex="1" parent="1">
          <mxGeometry x="135" y="398" width="110" height="30" as="geometry" />
        </mxCell>
        <mxCell id="X54crgLiA91lmuittRzc-102" value="[Produto Eliminado: Falso]" style="text;html=1;align=center;verticalAlign=middle;resizable=0;points=[];autosize=1;strokeColor=none;fillColor=none;fontFamily=Helvetica;fontSize=11;fontColor=default;labelBackgroundColor=default;" vertex="1" parent="1">
          <mxGeometry x="120" y="440" width="150" height="30" as="geometry" />
        </mxCell>
        <mxCell id="X54crgLiA91lmuittRzc-103" value="Retorna Erro" style="text;html=1;align=center;verticalAlign=middle;resizable=0;points=[];autosize=1;strokeColor=none;fillColor=none;fontFamily=Helvetica;fontSize=11;fontColor=default;labelBackgroundColor=default;" vertex="1" parent="1">
          <mxGeometry x="150" y="460" width="90" height="30" as="geometry" />
        </mxCell>
        <mxCell id="X54crgLiA91lmuittRzc-104" value="" style="html=1;verticalAlign=bottom;endArrow=open;dashed=1;endSize=8;curved=0;rounded=0;strokeColor=default;align=center;fontFamily=Helvetica;fontSize=11;fontColor=default;labelBackgroundColor=default;" edge="1" parent="1">
          <mxGeometry relative="1" as="geometry">
            <mxPoint x="350" y="480" as="sourcePoint" />
            <mxPoint x="60" y="480" as="targetPoint" />
          </mxGeometry>
        </mxCell>
      </root>
    </mxGraphModel>
  </diagram>
</mxfile>
